<?xml version="1.0" encoding="UTF-8"?>
<svg width="253px" height="102px" viewBox="0 0 253 102" version="1.1" xmlns="http://www.w3.org/2000/svg" xmlns:xlink="http://www.w3.org/1999/xlink">
    <!-- Generator: Sketch 60 (88103) - https://sketch.com -->
    <title>CC-cheque-illustration</title>
    <desc>Created with Sketch.</desc>
    <g id="CC-cheque-illustration" stroke="none" stroke-width="1" fill="none" fill-rule="evenodd">
        <g id="Illustration---Step-1---Desktop">
            <g>
                <polygon id="Fill-1" fill="#FFFFFF" points="253 98.1644635 32.3675938 99 32 2.83553646 252.632406 2"></polygon>
                <g id="Group-64">
                    <rect id="Rectangle" stroke="#0079C1" stroke-width="3" x="31.5" y="1.5" width="221" height="97" rx="1"></rect>
                    <path d="M250.794905,42 L251,97.1764706 L40.0810614,98 L40,76.1238088 C85.9374207,79.3858279 186.097132,81.0679946 250.794905,42" id="Fill-4" fill="#C1E7FF"></path>
                    <line x1="50" y1="39.5" x2="170" y2="39.5" id="Stroke-6" stroke="#73C3EB" stroke-width="3" stroke-linecap="round" stroke-linejoin="round"></line>
                    <g id="Group-11" transform="translate(50.000000, 49.000000)">
                        <line x1="-1.42108547e-14" y1="1.385" x2="101" y2="1" id="Fill-8" fill="#FFFFFF"></line>
                        <line x1="0.5" y1="1.5" x2="101.5" y2="1.5" id="Stroke-10" stroke="#0079C1" stroke-width="3" stroke-linecap="round" stroke-linejoin="round"></line>
                    </g>
                    <polygon id="Stroke-12" stroke="#005587" stroke-width="3" stroke-linecap="round" stroke-linejoin="round" points="105 23.7994456 50.0311814 24 50 16.2005544 104.968819 16"></polygon>
                    <polygon id="Stroke-14" stroke="#73C3EB" stroke-width="3" stroke-linecap="round" stroke-linejoin="round" points="239 28.8290091 192.053539 29 192 15.1700248 238.944441 15"></polygon>
                    <line x1="50" y1="76.322" x2="135" y2="76" id="Stroke-16" stroke="#091B28" stroke-width="3" stroke-linecap="round" stroke-linejoin="round"></line>
                    <g id="Group-21" transform="translate(150.000000, 74.000000)">
                        <line x1="0" y1="1.335" x2="88" y2="1" id="Fill-18" fill="#FFFFFF"></line>
                        <line x1="0.5" y1="1.5" x2="88.5" y2="1.5" id="Stroke-20" stroke="#0079C1" stroke-width="3" stroke-linecap="round" stroke-linejoin="round"></line>
                    </g>
                    <path d="M169.704507,39.7550648 C169.286704,39.0392379 169.529539,38.1208585 170.246379,37.7040882 C170.962158,37.2873179 171.879416,37.5291083 172.296159,38.2449352 C172.712902,38.9607621 172.470067,39.8791415 171.755348,40.2959118 C171.039569,40.7126821 170.12231,40.4708917 169.704507,39.7550648" id="Fill-22" fill="#091B28"></path>
                    <polyline id="Stroke-24" stroke="#0079C1" stroke-width="3" stroke-linecap="round" stroke-linejoin="round" points="215 15 192 15.0855318 192.052462 29"></polyline>
                    <polyline id="Stroke-26" stroke="#0079C1" stroke-width="3" stroke-linecap="round" stroke-linejoin="round" points="61 24 105 23.8381783 104.968951 16"></polyline>
                    <line x1="45" y1="1.5" x2="161" y2="1.5" id="Stroke-28" stroke="#091B28" stroke-width="3" stroke-linecap="round" stroke-linejoin="round"></line>
                    <path d="M129.18182,100.541069 L9.14531348,101 C4.82883833,101.016971 1.28430212,97.4822719 1.26834473,93.1470557 L1,22.3719209 C0.983106303,18.0367047 4.50071441,14.4759563 8.81718956,14.458924 L29.0701149,14.3817778 L128.854693,14 C133.170171,13.9840239 136.715705,17.5177211 136.730665,21.8529373 L137,92.6280721 C137.015903,96.9642902 133.498295,100.524037 129.18182,100.541069" id="Fill-32" fill="#FFFFFF"></path>
                    <path d="M128.370977,99.83736 L8.33447013,100.296291 C4.01799497,100.313262 0.473458763,96.7785629 0.457501369,92.4433467 L0.189156643,21.6682118 C0.172262946,17.3329956 3.68987105,13.7722472 8.00634621,13.7552149 L28.2592716,13.6780687 L128.04385,13.2962909 C132.359328,13.2803149 135.904861,16.814012 135.919822,21.1492283 L136.189157,91.9243631 C136.20506,96.2605812 132.687452,99.8203277 128.370977,99.83736 Z" id="Stroke-34" stroke="#0079C1" stroke-width="3" stroke-linecap="round" stroke-linejoin="round" transform="translate(68.189157, 56.796291) rotate(0.250000) translate(-68.189157, -56.796291) "></path>
                    <path d="M133.781617,37 L133.999965,94.578362 C134.00898,96.7449275 132.257188,98.514373 130.098748,98.522416 L6.98434996,99 C4.82591,99.0090135 3.06209897,97.2526377 3.0530846,95.0860722 L3,80.8370086 C27.0092642,80.2699817 90.2560622,74.9656665 135.781617,37 L133.781617,37 Z" id="Fill-36" fill="#C1E7FF"></path>
                    <path d="M136.575711,92.3917441 C136.592625,96.7449853 133.06973,100.319712 128.747992,100.335806 L8.56513409,100.796538 C4.2433962,100.813576 0.694538422,97.2660063 0.678561573,92.913771 L0.575710601,65.7965384" id="Stroke-38" stroke="#73C3EB" stroke-width="3" stroke-linecap="round" transform="translate(68.575711, 83.296538) rotate(0.250000) translate(-68.575711, -83.296538) "></path>
                    <polygon id="Stroke-40" stroke="#73C3EB" stroke-width="3" stroke-linecap="round" stroke-linejoin="round" points="15 40.0551095 15.0553594 55 29 54.9448905 28.9446406 40"></polygon>
                    <polyline id="Stroke-42" stroke="#0079C1" stroke-width="3" stroke-linecap="round" stroke-linejoin="round" points="15 55 29 54.943038 28.9821353 50"></polyline>
                    <polyline id="Stroke-44" stroke="#0079C1" stroke-width="3" stroke-linecap="round" stroke-linejoin="round" points="123 67 15 67.409 71.7604283 67.194"></polyline>
                    <line x1="15" y1="81" x2="50" y2="81" id="Stroke-46" stroke="#005587" stroke-width="3" stroke-linecap="round"></line>
                    <line x1="15" y1="68" x2="58" y2="68" id="Stroke-48" stroke="#091B28" stroke-width="3" stroke-linecap="round" stroke-linejoin="round"></line>
                    <path d="M48.2041779,81.2545095 C47.7869499,80.5399676 48.029683,79.6207138 48.7452095,79.2034915 C49.4607359,78.787244 50.3790274,79.0299738 50.7962554,79.7454905 C51.2125085,80.4610073 50.9707503,81.3792862 50.2552238,81.7965085 C49.5387225,82.212756 48.620431,81.9700262 48.2041779,81.2545095" id="Fill-56" fill="#091B28"></path>
                    <line x1="54" y1="13.5" x2="119" y2="13.5" id="Stroke-60" stroke="#005587" stroke-width="3" stroke-linecap="round"></line>
                    <path d="M168.497398,72 C167.743397,72 167.093397,71.4265434 167.009397,70.6508093 C166.917397,69.8174262 167.511397,69.0679882 168.333398,68.9749406 C176.210405,68.0899767 187.175415,65.3460829 195.708423,52.49843 C196.985424,49.8192651 198.479425,47.5244273 199.062426,46.6607025 C199.508426,46.001278 200.384427,45.8050689 201.062427,46.2106352 C201.743428,46.6151901 201.995428,47.4859946 201.642428,48.1990226 C200.601427,50.2925943 199.506426,52.2010822 198.370425,53.939657 C196.798424,57.2853261 196.018423,60.274987 196.976424,61.1356776 C199.520426,63.4193901 203.52143,60.2284632 203.56143,60.1960988 C204.16443,59.7075987 205.033431,59.7612023 205.573432,60.3204994 C206.111432,60.8787852 206.143432,61.7597036 205.647432,62.3574335 L204.878431,63.2828528 C208.650434,61.5463008 213.372439,59.8633524 217.499442,59.8633524 C223.435448,59.8633524 226.19945,61.5796766 228.218452,62.8337969 C229.714453,63.7622504 230.537454,64.273001 232.205456,63.9382318 C233.013456,63.7784326 233.808457,64.3073882 233.970457,65.1286347 C234.133457,65.9508925 233.605457,66.7498885 232.793456,66.9137333 C229.975454,67.4831443 228.282452,66.4343357 226.647451,65.4189028 C224.744449,64.2376025 222.588447,62.8975143 217.499442,62.8975143 C210.022436,62.8975143 199.645426,69.5251353 199.542426,69.5918868 C198.917425,69.9954304 198.095425,69.8750753 197.608424,69.3117326 C197.120424,68.7483898 197.112424,67.9089384 197.589424,67.3354818 L199.534426,64.9951315 C198.036425,65.0699742 196.434423,64.7048634 194.985422,63.4052307 C194.051421,62.5667906 193.649421,61.3986383 193.606421,60.0625957 C185.308413,68.970895 175.809405,71.187856 168.665398,71.9908975 C168.608398,71.9969658 168.552398,72 168.497398,72" id="Fill-62" fill="#005587"></path>
                </g>
            </g>
        </g>
    </g>
</svg>