<svg id="Layer_1" data-name="Layer 1" xmlns="http://www.w3.org/2000/svg" viewBox="0 0 200 200"><defs><style>.cls-1{fill:#282828;}</style></defs><path class="cls-1" d="M100.13,200c-5.67,0-10.94-3.65-14.59-10.54-45-83.08-45.39-83.89-45.39-84.29a67.56,67.56,0,0,1-9.93-35.66,70.11,70.11,0,0,1,140.22,0,69.16,69.16,0,0,1-10.53,36.87s-2.44,4.87-45,83.08C111.07,196.35,106,200,100.13,200Zm.2-192.5a62,62,0,0,0-62,62,60.55,60.55,0,0,0,9.12,32.21c1.21,2.64,33.23,61.6,45.38,84.1,4.26,7.9,10.54,7.9,15,0,15.2-28,44-81.26,45-83.08a62.49,62.49,0,0,0,9.53-33C162.13,35.26,134.37,7.5,100.33,7.5Z"/><path class="cls-1" d="M100.33,111.65A38.8,38.8,0,1,1,139,72.75,38.69,38.69,0,0,1,100.33,111.65Zm0-69.5a30.6,30.6,0,1,0,30.6,30.6A30.7,30.7,0,0,0,100.33,42.15Z"/></svg>